<svg width="375" height="394" viewBox="0 0 375 394" fill="none" xmlns="http://www.w3.org/2000/svg">
<rect x="-156.489" y="101.978" width="634.506" height="201.599" fill="#0B0B10"/>
<path opacity="0.2" d="M-154.956 224.293C-130.008 244.532 -69.5888 272.866 -27.4927 224.293C14.6034 175.721 69.2329 177.529 91.2857 184.504C117.511 191.774 169.96 183.797 169.96 93.7258" stroke="white"/>
<path opacity="0.2" d="M528.232 266.21C507.413 240.496 453.316 198.463 403.48 236.037C353.643 273.611 300.497 258.91 280.153 246.863C255.779 233.539 203.026 228.931 187.011 317.086" stroke="white"/>
<path opacity="0.2" d="M-204 286.078C-149.358 330.421 -17.0244 392.502 75.1766 286.078C167.378 179.654 287.03 183.615 335.331 198.898C392.77 214.828 507.648 197.349 507.648 0" stroke="white"/>
</svg>
