<svg width="16" height="16" viewBox="0 0 16 16" fill="none" xmlns="http://www.w3.org/2000/svg">
<g clip-path="url(#clip0)">
<path d="M13.8438 0H2.15603C0.965313 0 0 0.965273 0 2.15603V13.8439C0 15.0346 0.965274 15.9999 2.15603 15.9999H7.92039L7.93022 10.2824H6.44481C6.25177 10.2824 6.09509 10.1263 6.09435 9.93329L6.08723 8.0903C6.08648 7.8962 6.24363 7.73847 6.43773 7.73847H7.92043V5.95767C7.92043 3.89107 9.18258 2.7658 11.0261 2.7658H12.5389C12.7324 2.7658 12.8894 2.92271 12.8894 3.1163V4.67031C12.8894 4.86382 12.7326 5.0207 12.5391 5.02081L11.6107 5.02124C10.6081 5.02124 10.414 5.49766 10.414 6.19682V7.73851H12.617C12.8269 7.73851 12.9898 7.9218 12.965 8.13026L12.7466 9.97325C12.7257 10.1496 12.5761 10.2825 12.3986 10.2825H10.4238L10.414 16H13.8439C15.0346 16 15.9999 15.0347 15.9999 13.844V2.15603C15.9999 0.965273 15.0346 0 13.8438 0Z" fill="#475993"/>
</g>
<defs>
<clipPath id="clip0">
<rect width="16" height="16" fill="white"/>
</clipPath>
</defs>
</svg>
