<svg width="16" height="14" viewBox="0 0 16 14" fill="none" xmlns="http://www.w3.org/2000/svg">
<path d="M15.7455 1.89396C15.39 2.05159 15.021 2.17596 14.6423 2.26599C15.0596 1.8695 15.3733 1.37357 15.5503 0.820021C15.6008 0.661993 15.4292 0.525342 15.2865 0.609954C14.7597 0.922422 14.1922 1.15683 13.5999 1.30674C13.5655 1.31544 13.5301 1.31985 13.4945 1.31985C13.3866 1.31985 13.2817 1.27979 13.1992 1.20707C12.5689 0.651617 11.7584 0.345703 10.9168 0.345703C10.5526 0.345703 10.185 0.402462 9.82398 0.51442C8.70549 0.861333 7.84248 1.78395 7.57172 2.92225C7.47014 3.34921 7.44264 3.77656 7.48992 4.19241C7.49534 4.24019 7.47275 4.27354 7.45883 4.28919C7.43437 4.31661 7.39969 4.33233 7.36368 4.33233C7.35966 4.33233 7.35553 4.33214 7.35143 4.33175C4.90311 4.10428 2.69532 2.92475 1.13474 1.01047C1.05516 0.912825 0.902552 0.924801 0.839123 1.0336C0.533521 1.55789 0.372021 2.15754 0.372021 2.76773C0.372021 3.70287 0.747723 4.58414 1.40032 5.22659C1.12588 5.16152 0.860266 5.05904 0.61353 4.922C0.49416 4.85569 0.347289 4.94092 0.345612 5.07746C0.328526 6.46667 1.14188 7.7028 2.3603 8.25943C2.33577 8.26002 2.31123 8.26029 2.28665 8.26029C2.09352 8.26029 1.89796 8.24164 1.70549 8.20486C1.57106 8.17919 1.45813 8.30671 1.49987 8.43704C1.89535 9.67174 2.95844 10.5818 4.23062 10.7885C3.17479 11.4972 1.94524 11.8711 0.66553 11.8711L0.266578 11.8709C0.143659 11.8709 0.0396982 11.951 0.00837342 12.0701C-0.0224832 12.1873 0.0343538 12.311 0.139173 12.372C1.5812 13.2112 3.22604 13.6547 4.89659 13.6547C6.35887 13.6547 7.7267 13.3645 8.96214 12.7923C10.0947 12.2676 11.0955 11.5177 11.9368 10.5632C12.7205 9.67412 13.3334 8.64773 13.7583 7.51263C14.1633 6.43062 14.3774 5.27609 14.3774 4.17384V4.12133C14.3773 3.94434 14.4574 3.77781 14.597 3.66445C15.127 3.23417 15.5885 2.72767 15.9686 2.15903C16.069 2.00888 15.9107 1.8207 15.7455 1.89396Z" fill="#76A9EA"/>
</svg>
